<svg version="1.1" id="Layer_1" xmlns="http://www.w3.org/2000/svg" xmlns:xlink="http://www.w3.org/1999/xlink" x="0px" y="0px"
	 width="100%" viewBox="0 0 444 372" enable-background="new 0 0 444 372" xml:space="preserve">
<path fill="#2B4359" opacity="1.000000" stroke="none" 
	d="
M445.000000,105.000000 
	C445.000000,120.687561 445.000000,136.375122 444.610352,152.529800 
	C441.282990,151.654510 438.299957,150.402374 435.415894,148.953247 
	C425.578949,144.010696 415.807068,138.865250 408.763580,130.074158 
	C401.238647,120.682236 391.449554,114.020454 381.896851,107.059265 
	C380.801636,106.261169 379.076569,106.327339 377.471008,105.777725 
	C376.638733,104.680229 375.978973,103.797806 375.185791,102.584320 
	C364.788452,82.918076 350.713837,66.777267 333.834290,52.967602 
	C321.022949,42.486259 306.488556,34.898602 291.750061,27.293266 
	C290.769470,24.955746 290.191437,21.921165 288.651489,21.309904 
	C284.494141,19.659708 283.780273,16.785547 283.996094,13.033655 
	C284.244263,8.718339 281.766876,6.551717 278.101471,4.906422 
	C276.477081,4.177297 275.351837,2.336284 274.000000,0.999999 
	C288.020905,1.000000 302.041779,1.000000 316.578491,1.341758 
	C317.506683,2.391084 317.784760,3.237876 318.351868,3.785078 
	C325.420929,10.605816 332.516327,17.399500 339.639984,24.163208 
	C342.387665,26.772072 345.093597,29.451508 348.052094,31.805239 
	C352.034058,34.973259 356.443939,37.620735 360.306458,40.917725 
	C366.373444,46.096424 372.073700,51.702057 378.046875,56.994152 
	C383.738556,62.036827 389.281464,67.324562 395.428375,71.757790 
	C404.218048,78.097015 413.222565,84.247841 422.662354,89.538910 
	C429.288818,93.253082 436.470520,95.787186 440.907471,102.554237 
	C441.691437,103.749924 443.606995,104.203659 445.000000,105.000000 
z"/>
<path fill="#0C1C2B" opacity="1.000000" stroke="none" 
	d="
M1.000000,241.000000 
	C1.000000,215.645767 1.000000,190.291550 1.351010,164.414459 
	C2.344707,163.408981 3.193926,163.058289 3.599120,162.423965 
	C9.733444,152.820633 15.739191,143.134583 21.928244,133.567017 
	C25.132843,128.613083 28.638138,123.853653 32.303162,118.845314 
	C38.526131,112.503021 44.384693,106.253357 50.420494,100.179832 
	C52.373985,98.214142 54.792355,96.710442 56.989876,95.362427 
	C54.684143,99.635658 52.559299,103.657166 50.047108,107.420074 
	C46.597469,112.587135 42.579361,117.389748 39.339649,122.676277 
	C37.381424,125.871712 34.474682,129.380646 37.605495,133.634384 
	C37.904339,134.040405 37.835167,135.042831 37.535389,135.511688 
	C35.414463,138.828979 33.656555,142.583420 30.847317,145.190262 
	C28.624386,147.253036 27.923807,148.738541 28.807665,151.504486 
	C29.237024,152.848129 28.940742,154.479050 28.756437,155.952835 
	C28.230381,160.159439 27.336960,164.335297 27.059099,168.554245 
	C26.625896,175.131897 28.607578,182.370544 19.939106,186.788528 
	C22.330181,187.850037 23.560163,188.667465 24.901196,188.941544 
	C29.270632,189.834564 29.614891,191.963089 28.003284,195.824921 
	C27.188440,197.777496 27.915691,200.478363 28.288288,202.785583 
	C28.544634,204.372955 29.731588,205.825775 29.914085,207.406677 
	C30.872526,215.709167 31.643433,224.033310 32.473671,232.292175 
	C31.395117,231.825531 29.582056,231.041077 27.744570,230.246063 
	C27.432587,231.046646 27.136141,231.420807 27.225006,231.635498 
	C29.890026,238.073914 35.279850,243.519669 34.340443,251.272095 
	C34.323536,251.411606 34.467052,251.572327 34.540527,251.720779 
	C38.601387,259.925751 42.662754,268.130493 46.721256,276.329559 
	C47.897701,275.963562 49.055267,275.603455 49.590096,275.437073 
	C50.735481,278.781555 51.646259,281.777008 52.785133,284.683044 
	C54.271133,288.474854 55.861603,292.231171 57.572086,295.926392 
	C58.102692,297.072693 59.173988,297.967407 59.990936,298.982758 
	C61.321430,300.636322 62.663033,302.281311 63.970345,303.953064 
	C67.398544,308.337006 70.607979,312.914185 74.302673,317.059509 
	C76.653145,319.696655 79.718750,321.695160 82.455589,323.989655 
	C84.426521,325.641998 86.824776,327.001953 88.250450,329.039490 
	C90.762154,332.629120 92.676437,336.636780 95.077621,340.888672 
	C95.121506,340.853882 94.566719,341.432892 93.893921,341.789001 
	C93.176460,342.168762 92.202690,342.153503 91.593399,342.632172 
	C89.484993,344.288574 90.392883,348.059875 92.906120,347.710297 
	C95.347534,347.370728 97.541801,345.254395 100.551170,343.508331 
	C100.742302,344.576843 100.843605,346.175568 101.331078,347.646301 
	C102.249977,350.418610 103.249039,355.385315 104.464378,355.461609 
	C110.344231,355.830536 114.477821,358.219208 119.518456,361.314453 
	C125.771614,365.154205 131.606140,371.361633 139.993301,371.431580 
	C140.333206,371.434387 140.664627,372.454071 141.000000,373.000000 
	C132.312439,373.000000 123.624870,373.000000 114.416885,372.653534 
	C110.871056,370.139313 107.905571,367.881409 104.808128,365.821991 
	C97.701187,361.096802 89.745705,357.289764 83.676132,351.495361 
	C79.981026,347.967773 76.358589,345.268005 71.849930,343.345703 
	C71.259407,343.093933 70.677292,342.660156 70.271446,342.163483 
	C67.260361,338.478516 64.293938,334.757019 61.315243,331.045593 
	C56.924438,325.574707 49.002155,322.489471 49.560783,313.645935 
	C49.582832,313.296814 49.030952,312.703857 48.629627,312.566895 
	C42.982868,310.639618 42.024822,304.460205 38.079880,300.927856 
	C35.730358,298.824097 34.651924,293.970642 32.306522,293.442566 
	C25.351522,291.876648 24.474253,287.369415 25.076679,281.917053 
	C25.886036,274.591858 20.374176,270.983490 16.617777,266.335968 
	C12.322257,261.021423 7.795250,255.893188 3.542352,250.546005 
	C3.050821,249.927979 3.330464,248.236298 3.825577,247.369858 
	C6.667270,242.397034 6.578082,242.092224 1.000000,241.000000 
z"/>
<path fill="#0D1F30" opacity="1.000000" stroke="none" 
	d="
M1.000000,241.468658 
	C6.578082,242.092224 6.667270,242.397034 3.825577,247.369858 
	C3.330464,248.236298 3.050821,249.927979 3.542352,250.546005 
	C7.795250,255.893188 12.322257,261.021423 16.617777,266.335968 
	C20.374176,270.983490 25.886036,274.591858 25.076679,281.917053 
	C24.474253,287.369415 25.351522,291.876648 32.306522,293.442566 
	C34.651924,293.970642 35.730358,298.824097 38.079880,300.927856 
	C42.024822,304.460205 42.982868,310.639618 48.629627,312.566895 
	C49.030952,312.703857 49.582832,313.296814 49.560783,313.645935 
	C49.002155,322.489471 56.924438,325.574707 61.315243,331.045593 
	C64.293938,334.757019 67.260361,338.478516 70.271446,342.163483 
	C70.677292,342.660156 71.259407,343.093933 71.849930,343.345703 
	C76.358589,345.268005 79.981026,347.967773 83.676132,351.495361 
	C89.745705,357.289764 97.701187,361.096802 104.808128,365.821991 
	C107.905571,367.881409 110.871056,370.139313 113.948227,372.653534 
	C76.400703,373.000000 38.801403,373.000000 1.000000,373.000000 
	C1.000000,329.312653 1.000000,285.624969 1.000000,241.468658 
z"/>
<path fill="#12263B" opacity="1.000000" stroke="none" 
	d="
M56.998081,94.995415 
	C54.792355,96.710442 52.373985,98.214142 50.420494,100.179832 
	C44.384693,106.253357 38.526131,112.503021 31.949924,118.888680 
	C29.895128,118.554939 28.215231,118.332138 27.147461,117.404633 
	C25.552244,116.018974 24.608829,113.869423 22.986715,112.531532 
	C20.766354,110.700203 20.128502,109.551125 23.046797,107.762756 
	C24.591658,106.816048 26.484650,105.139275 26.700918,103.581169 
	C27.220945,99.834633 27.037191,95.947746 26.723000,92.151772 
	C26.616516,90.865280 25.449051,88.818352 24.452204,88.607986 
	C21.046686,87.889328 19.884010,85.982994 19.633011,82.758850 
	C19.542698,81.598770 18.374319,80.503868 17.643892,79.415482 
	C13.599879,73.389587 7.627267,72.339371 1.000000,73.000000 
	C1.000000,49.082317 1.000000,25.164639 1.000000,1.000000 
	C19.353489,1.000000 37.708088,1.000000 56.542595,1.384032 
	C58.348309,6.124037 59.675762,10.479510 60.999252,14.836187 
	C61.692978,17.119801 62.114388,19.532354 63.131588,21.660707 
	C64.675301,24.890703 64.304741,32.235275 62.185799,33.728043 
	C57.913708,36.737667 56.395916,41.652267 59.030766,45.851944 
	C63.344833,52.728123 68.081863,59.337757 72.530983,66.131523 
	C73.297798,67.302437 73.961922,68.844765 73.912865,70.187744 
	C73.775551,73.947006 75.490280,75.344772 78.972122,75.349205 
	C77.276947,77.451874 75.635681,79.218315 73.651413,81.035957 
	C70.206207,83.394531 67.103996,85.701904 63.711258,88.160751 
	C61.612679,90.207497 59.804626,92.102760 57.789600,94.120178 
	C57.324425,94.444168 57.129578,94.695198 56.998081,94.995415 
z"/>
<path fill="#142B3F" opacity="1.000000" stroke="none" 
	d="
M445.000000,359.000000 
	C445.000000,363.655029 445.000000,368.310089 445.000000,373.000000 
	C391.312439,373.000000 337.624878,373.000000 283.515320,372.656036 
	C283.760834,371.397003 284.292938,370.331757 285.116211,369.589386 
	C297.461761,358.456970 309.915039,347.442535 322.143982,336.184143 
	C323.932861,334.537262 324.695892,331.776093 326.038239,329.394562 
	C326.319946,329.092468 326.528442,328.990692 327.006744,328.953918 
	C327.477020,328.620575 327.708984,328.286560 328.145752,327.688599 
	C332.898499,323.615814 337.446533,319.806946 342.253052,315.800201 
	C343.994049,314.338531 345.476624,313.074799 347.100983,312.161011 
	C347.404968,313.793335 347.329803,315.169739 347.790894,316.333740 
	C348.337311,317.713196 349.067993,319.295380 350.205231,320.114288 
	C353.894531,322.771118 357.780884,325.159821 361.645691,327.564423 
	C363.037964,328.430664 364.838043,329.953217 366.015625,329.622467 
	C370.769623,328.287323 373.716797,331.745178 377.370697,333.250214 
	C381.747711,335.053131 386.028870,337.089325 390.411041,338.878784 
	C395.102722,340.794617 400.269714,341.900726 404.466644,344.562592 
	C407.862366,346.716309 410.492950,348.780945 414.749451,347.212585 
	C416.008911,346.748474 417.973175,347.626801 419.410950,348.315094 
	C425.739990,351.344940 431.935669,354.658752 438.310669,357.584198 
	C440.331482,358.511505 442.758728,358.553101 445.000000,359.000000 
z"/>
<path fill="#193145" opacity="1.000000" stroke="none" 
	d="
M445.000000,358.531342 
	C442.758728,358.553101 440.331482,358.511505 438.310669,357.584198 
	C431.935669,354.658752 425.739990,351.344940 419.410950,348.315094 
	C417.973175,347.626801 416.008911,346.748474 414.749451,347.212585 
	C410.492950,348.780945 407.862366,346.716309 404.466644,344.562592 
	C400.269714,341.900726 395.102722,340.794617 390.411041,338.878784 
	C386.028870,337.089325 381.747711,335.053131 377.370697,333.250214 
	C373.716797,331.745178 370.769623,328.287323 366.015625,329.622467 
	C364.838043,329.953217 363.037964,328.430664 361.645691,327.564423 
	C357.780884,325.159821 353.894531,322.771118 350.205231,320.114288 
	C349.067993,319.295380 348.337311,317.713196 347.790894,316.333740 
	C347.329803,315.169739 347.404968,313.793335 347.254028,311.879364 
	C350.205597,307.841461 353.145905,304.435089 356.346863,300.828461 
	C363.320068,291.080017 370.032654,281.531860 376.894775,271.781342 
	C377.290070,271.357147 377.535797,271.135315 378.139404,270.972900 
	C379.812439,271.601532 381.127655,272.170715 382.595093,272.805817 
	C383.529877,271.432220 384.323395,270.266266 385.116272,269.101166 
	C385.860931,269.340790 386.709045,269.471161 386.715912,269.636444 
	C386.992401,276.298340 392.722778,278.181641 396.899353,281.463043 
	C398.313110,282.573822 400.134827,283.912964 400.516266,285.457428 
	C401.984100,291.400330 406.358612,290.597321 410.870026,291.158173 
	C420.754425,292.387115 431.302948,288.657867 440.539307,294.976288 
	C441.866577,295.884216 443.505371,296.336731 445.000000,297.000000 
	C445.000000,317.354218 445.000000,337.708466 445.000000,358.531342 
z"/>
<path fill="#0B1B28" opacity="1.000000" stroke="none" 
	d="
M325.933563,329.530518 
	C324.695892,331.776093 323.932861,334.537262 322.143982,336.184143 
	C309.915039,347.442535 297.461761,358.456970 285.116211,369.589386 
	C284.292938,370.331757 283.760834,371.397003 283.046631,372.656036 
	C235.979111,373.000000 188.958206,373.000000 141.468658,373.000000 
	C140.664627,372.454071 140.333206,371.434387 139.993301,371.431580 
	C131.606140,371.361633 125.771614,365.154205 119.518456,361.314453 
	C114.477821,358.219208 110.344231,355.830536 104.464378,355.461609 
	C103.249039,355.385315 102.249977,350.418610 101.331078,347.646301 
	C100.843605,346.175568 100.742302,344.576843 100.551170,343.508331 
	C97.541801,345.254395 95.347534,347.370728 92.906120,347.710297 
	C90.392883,348.059875 89.484993,344.288574 91.593399,342.632172 
	C92.202690,342.153503 93.176460,342.168762 93.893921,341.789001 
	C94.566719,341.432892 95.121506,340.853882 95.077621,340.888672 
	C92.676437,336.636780 90.762154,332.629120 88.250450,329.039490 
	C86.824776,327.001953 84.426521,325.641998 82.455589,323.989655 
	C79.718750,321.695160 76.653145,319.696655 74.302673,317.059509 
	C70.607979,312.914185 67.398544,308.337006 63.970345,303.953064 
	C62.663033,302.281311 61.321430,300.636322 59.990936,298.982758 
	C59.173988,297.967407 58.102692,297.072693 57.572086,295.926392 
	C55.861603,292.231171 54.271133,288.474854 52.785133,284.683044 
	C51.646259,281.777008 50.735481,278.781555 49.590096,275.437073 
	C49.055267,275.603455 47.897701,275.963562 46.721256,276.329559 
	C42.662754,268.130493 38.601387,259.925751 34.540527,251.720779 
	C34.467052,251.572327 34.323536,251.411606 34.340443,251.272095 
	C35.279850,243.519669 29.890026,238.073914 27.225006,231.635498 
	C27.136141,231.420807 27.432587,231.046646 27.744570,230.246063 
	C29.582056,231.041077 31.395117,231.825531 32.473671,232.292175 
	C31.643433,224.033310 30.872526,215.709167 29.914085,207.406677 
	C29.731588,205.825775 28.544634,204.372955 28.288288,202.785583 
	C27.915691,200.478363 27.188440,197.777496 28.003284,195.824921 
	C29.614891,191.963089 29.270632,189.834564 24.901196,188.941544 
	C23.560163,188.667465 22.330181,187.850037 19.939106,186.788528 
	C28.607578,182.370544 26.625896,175.131897 27.059099,168.554245 
	C27.336960,164.335297 28.230381,160.159439 28.756437,155.952835 
	C28.940742,154.479050 29.237024,152.848129 28.807665,151.504486 
	C27.923807,148.738541 28.624386,147.253036 30.847317,145.190262 
	C33.656555,142.583420 35.414463,138.828979 37.535389,135.511688 
	C37.835167,135.042831 37.904339,134.040405 37.605495,133.634384 
	C34.474682,129.380646 37.381424,125.871712 39.339649,122.676277 
	C42.579361,117.389748 46.597469,112.587135 50.047108,107.420074 
	C52.559299,103.657166 54.684143,99.635658 56.989876,95.362427 
	C57.129578,94.695198 57.324425,94.444168 58.158447,94.111694 
	C62.041924,93.359283 63.934162,91.488991 64.001785,88.009270 
	C67.103996,85.701904 70.206207,83.394531 73.644180,81.405182 
	C73.399803,82.867241 73.037262,84.210030 72.203720,85.122589 
	C67.316406,90.473160 61.961166,95.441025 57.490311,101.110878 
	C54.718903,104.625542 53.034790,109.068314 51.224632,113.251152 
	C49.247257,117.820389 43.087296,121.154305 46.770283,127.528641 
	C46.938999,127.820663 46.561237,128.463867 46.377281,128.918945 
	C43.093155,137.043106 39.735855,145.138794 36.575027,153.310532 
	C36.085449,154.576233 35.917057,156.568588 36.585060,157.563797 
	C38.401699,160.270233 37.786617,162.313324 36.247631,164.861740 
	C35.304646,166.423248 35.152084,168.654099 35.188099,170.574173 
	C35.259369,174.373444 35.802162,178.161377 35.974026,181.961945 
	C36.154377,185.950027 35.097317,190.334900 36.420120,193.855331 
	C38.750710,200.057785 37.326141,205.494293 35.485878,211.211151 
	C32.352558,220.944962 33.555321,226.433334 39.900139,231.552567 
	C36.695210,238.774612 41.184505,245.687164 45.819145,247.797836 
	C52.553284,250.864639 49.438519,253.767487 48.762653,257.558502 
	C48.378139,259.715271 48.282253,262.209595 49.001251,264.212769 
	C50.203617,267.562622 52.017727,270.726135 53.834396,273.815125 
	C57.166519,279.480957 60.424690,285.221466 64.210190,290.580078 
	C67.490158,295.223083 71.463264,299.375763 75.110710,303.761169 
	C75.420952,304.134186 75.714706,304.605194 75.798233,305.069855 
	C77.074493,312.169067 81.905548,315.884766 88.297699,317.883362 
	C91.334335,318.832825 92.054619,320.178497 91.259094,323.344788 
	C90.448486,326.571106 91.993271,329.376709 95.568642,329.933899 
	C100.024048,330.628235 102.692856,332.862579 105.279884,336.662231 
	C106.736153,338.801086 111.297897,338.825562 114.460648,339.802551 
	C114.482292,337.641479 114.488899,335.480011 114.543472,333.319733 
	C114.550774,333.030304 114.800415,332.746979 115.089127,332.145813 
	C117.305756,332.735229 121.093727,330.067932 121.296822,334.777588 
	C121.380653,336.721619 119.660133,339.093018 118.142639,340.679108 
	C115.501732,343.439392 115.836006,346.234528 119.502892,347.620392 
	C120.867050,348.135956 123.096107,348.034088 123.577492,348.936035 
	C126.187645,353.826538 130.713242,354.768005 135.376114,356.803528 
	C143.200165,360.218994 151.638123,360.944855 159.571869,364.258209 
	C168.963043,368.180298 180.218582,368.692352 190.680817,368.773407 
	C211.589691,368.935425 232.501251,369.728668 253.461807,367.406891 
	C262.717224,366.381653 268.621918,364.093964 271.263031,354.740448 
	C282.013428,350.305573 292.499542,346.121826 303.345612,341.900085 
	C309.852661,338.347717 315.999725,334.833282 322.472565,331.199982 
	C323.843414,330.564240 324.888489,330.047394 325.933563,329.530518 
z"/>
<path fill="#142A3E" opacity="1.000000" stroke="none" 
	d="
M79.026039,75.012970 
	C75.490280,75.344772 73.775551,73.947006 73.912865,70.187744 
	C73.961922,68.844765 73.297798,67.302437 72.530983,66.131523 
	C68.081863,59.337757 63.344833,52.728123 59.030766,45.851944 
	C56.395916,41.652267 57.913708,36.737667 62.185799,33.728043 
	C64.304741,32.235275 64.675301,24.890703 63.131588,21.660707 
	C62.114388,19.532354 61.692978,17.119801 60.999252,14.836187 
	C59.675762,10.479510 58.348309,6.124037 57.011253,1.384032 
	C69.020897,1.000000 81.041786,1.000000 93.542953,1.386954 
	C96.279427,6.595069 98.523666,11.421885 100.799538,16.233738 
	C101.433990,17.575151 102.822708,18.920483 102.730827,20.181334 
	C102.364319,25.210711 105.707382,27.360802 109.343681,29.074797 
	C113.130142,30.859575 114.057045,33.742111 114.040741,37.560135 
	C114.007622,45.315208 114.103859,45.302830 121.836571,45.270042 
	C122.232613,45.268360 122.630928,45.802971 122.837936,46.353264 
	C120.759888,48.066216 118.872093,49.513794 116.687637,51.114182 
	C113.295334,53.893036 110.199692,56.519077 106.888474,58.905411 
	C105.474800,58.967979 104.101456,58.991341 103.106285,59.616604 
	C95.039459,64.684944 87.043556,69.866165 79.026039,75.012970 
z"/>
<path fill="#2F475D" opacity="1.000000" stroke="none" 
	d="
M445.000000,104.531738 
	C443.606995,104.203659 441.691437,103.749924 440.907471,102.554237 
	C436.470520,95.787186 429.288818,93.253082 422.662354,89.538910 
	C413.222565,84.247841 404.218048,78.097015 395.428375,71.757790 
	C389.281464,67.324562 383.738556,62.036827 378.046875,56.994152 
	C372.073700,51.702057 366.373444,46.096424 360.306458,40.917725 
	C356.443939,37.620735 352.034058,34.973259 348.052094,31.805239 
	C345.093597,29.451508 342.387665,26.772072 339.639984,24.163208 
	C332.516327,17.399500 325.420929,10.605816 318.351868,3.785078 
	C317.784760,3.237876 317.506683,2.391084 317.047150,1.341758 
	C330.354218,1.000000 343.708466,1.000000 357.580139,1.346053 
	C361.201477,6.682990 363.942505,11.950489 367.489594,16.603491 
	C373.660583,24.698500 379.907745,32.817204 386.927094,40.156960 
	C392.205353,45.676136 398.789612,49.934868 404.698730,54.867008 
	C407.600494,57.288990 410.324646,59.928955 413.064148,62.538513 
	C415.557709,64.913750 417.859619,67.499191 420.441193,69.770042 
	C422.437103,71.525688 424.689667,73.006386 426.914459,74.478874 
	C428.359955,75.435562 430.026001,76.057411 431.479462,77.003983 
	C436.015381,79.957993 440.497223,82.995102 445.000000,86.000000 
	C445.000000,92.021156 445.000000,98.042305 445.000000,104.531738 
z"/>
<path fill="#334C61" opacity="1.000000" stroke="none" 
	d="
M445.000000,85.531342 
	C440.497223,82.995102 436.015381,79.957993 431.479462,77.003983 
	C430.026001,76.057411 428.359955,75.435562 426.914459,74.478874 
	C424.689667,73.006386 422.437103,71.525688 420.441193,69.770042 
	C417.859619,67.499191 415.557709,64.913750 413.064148,62.538513 
	C410.324646,59.928955 407.600494,57.288990 404.698730,54.867008 
	C398.789612,49.934868 392.205353,45.676136 386.927094,40.156960 
	C379.907745,32.817204 373.660583,24.698500 367.489594,16.603491 
	C363.942505,11.950489 361.201477,6.682990 358.048828,1.346053 
	C369.687561,1.000000 381.375122,1.000000 393.540955,1.369881 
	C394.169861,2.382187 394.168243,3.117378 394.494537,3.652717 
	C397.832764,9.129997 401.407501,14.109947 406.281921,18.717392 
	C413.727020,25.754726 420.575378,33.016464 430.549225,36.360535 
	C430.848907,36.461025 431.164368,36.693348 431.341644,36.953377 
	C434.646332,41.800781 440.116333,41.736290 445.000000,43.000000 
	C445.000000,57.020893 445.000000,71.041786 445.000000,85.531342 
z"/>
<path fill="#263F54" opacity="1.000000" stroke="none" 
	d="
M377.643555,105.992798 
	C379.076569,106.327339 380.801636,106.261169 381.896851,107.059265 
	C391.449554,114.020454 401.238647,120.682236 408.763580,130.074158 
	C415.807068,138.865250 425.578949,144.010696 435.415894,148.953247 
	C438.299957,150.402374 441.282990,151.654510 444.610352,152.998459 
	C445.000000,168.354233 445.000000,183.708450 444.582764,199.531006 
	C440.367462,199.750763 436.415833,199.872711 434.886719,195.152908 
	C434.674591,194.498123 433.753235,193.891769 433.026093,193.613815 
	C427.070892,191.337280 421.070343,189.179077 415.122620,186.883682 
	C414.324219,186.575562 413.339539,185.816696 413.130127,185.072632 
	C412.047516,181.225937 408.824341,181.362915 405.931244,181.107544 
	C403.354492,180.880066 400.742096,181.055664 398.065308,180.624832 
	C396.960388,172.792587 395.935577,165.388855 394.926239,157.585907 
	C393.903748,152.787857 392.865784,148.389053 391.853729,143.608673 
	C390.112579,137.806290 388.345490,132.385468 386.473114,126.639496 
	C383.459747,119.540497 380.551666,112.766647 377.643555,105.992798 
z"/>
<path fill="#1D354A" opacity="1.000000" stroke="none" 
	d="
M445.000000,296.531342 
	C443.505371,296.336731 441.866577,295.884216 440.539307,294.976288 
	C431.302948,288.657867 420.754425,292.387115 410.870026,291.158173 
	C406.358612,290.597321 401.984100,291.400330 400.516266,285.457428 
	C400.134827,283.912964 398.313110,282.573822 396.899353,281.463043 
	C392.722778,278.181641 386.992401,276.298340 386.715912,269.636444 
	C386.709045,269.471161 385.860931,269.340790 385.116272,269.101166 
	C384.323395,270.266266 383.529877,271.432220 382.595093,272.805817 
	C381.127655,272.170715 379.812439,271.601532 378.243683,270.627991 
	C380.630341,264.142609 383.270508,258.061554 386.091431,251.653366 
	C388.167419,245.545212 390.062622,239.764191 392.133972,233.840454 
	C392.517395,233.476852 392.701416,233.238083 393.254852,233.036865 
	C397.250397,233.981537 401.257202,234.156601 402.287384,239.010590 
	C402.450623,239.779785 404.053040,240.398834 405.100372,240.797913 
	C409.389404,242.432159 413.663452,244.146454 418.053375,245.463623 
	C422.417206,246.772980 426.878387,248.279724 431.361084,248.524536 
	C435.866211,248.770599 440.450439,247.567841 445.000000,247.000000 
	C445.000000,263.354218 445.000000,279.708466 445.000000,296.531342 
z"/>
<path fill="#213A4F" opacity="1.000000" stroke="none" 
	d="
M445.000000,246.531342 
	C440.450439,247.567841 435.866211,248.770599 431.361084,248.524536 
	C426.878387,248.279724 422.417206,246.772980 418.053375,245.463623 
	C413.663452,244.146454 409.389404,242.432159 405.100372,240.797913 
	C404.053040,240.398834 402.450623,239.779785 402.287384,239.010590 
	C401.257202,234.156601 397.250397,233.981537 393.264984,232.626282 
	C394.263672,223.109070 395.644867,214.057877 397.066406,204.582214 
	C397.328766,196.412949 397.550812,188.668182 397.864685,180.959610 
	C397.956543,180.995819 398.145447,181.053360 398.145447,181.053360 
	C400.742096,181.055664 403.354492,180.880066 405.931244,181.107544 
	C408.824341,181.362915 412.047516,181.225937 413.130127,185.072632 
	C413.339539,185.816696 414.324219,186.575562 415.122620,186.883682 
	C421.070343,189.179077 427.070892,191.337280 433.026093,193.613815 
	C433.753235,193.891769 434.674591,194.498123 434.886719,195.152908 
	C436.415833,199.872711 440.367462,199.750763 444.582764,199.999664 
	C445.000000,215.354233 445.000000,230.708450 445.000000,246.531342 
z"/>
<path fill="#182F43" opacity="1.000000" stroke="none" 
	d="
M123.028183,46.087891 
	C122.630928,45.802971 122.232613,45.268360 121.836571,45.270042 
	C114.103859,45.302830 114.007622,45.315208 114.040741,37.560135 
	C114.057045,33.742111 113.130142,30.859575 109.343681,29.074797 
	C105.707382,27.360802 102.364319,25.210711 102.730827,20.181334 
	C102.822708,18.920483 101.433990,17.575151 100.799538,16.233738 
	C98.523666,11.421885 96.279427,6.595069 94.011612,1.386954 
	C114.354225,1.000000 134.708450,1.000000 155.531616,1.445302 
	C156.056671,4.186867 155.248199,7.058673 156.324631,8.675773 
	C160.164459,14.444298 158.668961,20.718590 158.674103,27.022703 
	C154.062988,29.410572 149.762802,31.609596 145.114136,33.809090 
	C139.507629,36.871410 134.249603,39.933258 128.655457,43.050373 
	C126.555618,44.099724 124.791901,45.093807 123.028183,46.087891 
z"/>
<path fill="#0F2335" opacity="1.000000" stroke="none" 
	d="
M1.000000,73.468658 
	C7.627267,72.339371 13.599879,73.389587 17.643892,79.415482 
	C18.374319,80.503868 19.542698,81.598770 19.633011,82.758850 
	C19.884010,85.982994 21.046686,87.889328 24.452204,88.607986 
	C25.449051,88.818352 26.616516,90.865280 26.723000,92.151772 
	C27.037191,95.947746 27.220945,99.834633 26.700918,103.581169 
	C26.484650,105.139275 24.591658,106.816048 23.046797,107.762756 
	C20.128502,109.551125 20.766354,110.700203 22.986715,112.531532 
	C24.608829,113.869423 25.552244,116.018974 27.147461,117.404633 
	C28.215231,118.332138 29.895128,118.554939 31.654346,119.049713 
	C28.638138,123.853653 25.132843,128.613083 21.928244,133.567017 
	C15.739191,143.134583 9.733444,152.820633 3.599120,162.423965 
	C3.193926,163.058289 2.344707,163.408981 1.351010,163.945801 
	C1.000000,133.979111 1.000000,103.958214 1.000000,73.468658 
z"/>
<path fill="#395064" opacity="1.000000" stroke="none" 
	d="
M445.000000,42.531342 
	C440.116333,41.736290 434.646332,41.800781 431.341644,36.953377 
	C431.164368,36.693348 430.848907,36.461025 430.549225,36.360535 
	C420.575378,33.016464 413.727020,25.754726 406.281921,18.717392 
	C401.407501,14.109947 397.832764,9.129997 394.494537,3.652717 
	C394.168243,3.117378 394.169861,2.382187 394.009644,1.369881 
	C410.919617,1.000000 427.839264,1.000000 445.000000,1.000000 
	C445.000000,14.686618 445.000000,28.374651 445.000000,42.531342 
z"/>
<path fill="#273F54" opacity="1.000000" stroke="none" 
	d="
M273.531342,0.999999 
	C275.351837,2.336284 276.477081,4.177297 278.101471,4.906422 
	C281.766876,6.551717 284.244263,8.718339 283.996094,13.033655 
	C283.780273,16.785547 284.494141,19.659708 288.651489,21.309904 
	C290.191437,21.921165 290.769470,24.955746 291.409302,27.206882 
	C290.346100,27.402435 289.659821,27.276262 288.694275,26.919796 
	C279.686218,24.070326 270.957367,21.451145 261.921661,18.577671 
	C253.099228,17.120598 244.583649,15.917821 236.015594,14.314632 
	C231.499741,10.188501 233.615280,5.462697 234.000000,1.000000 
	C247.020889,1.000000 260.041779,1.000000 273.531342,0.999999 
z"/>
<path fill="#1D354A" opacity="1.000000" stroke="none" 
	d="
M158.985031,26.833858 
	C158.668961,20.718590 160.164459,14.444298 156.324631,8.675773 
	C155.248199,7.058673 156.056671,4.186867 156.000275,1.445302 
	C167.687561,1.000000 179.375122,1.000000 191.580933,1.345310 
	C193.166016,2.850891 194.324692,3.940498 195.281952,5.185022 
	C197.897888,8.585944 200.428925,12.052169 202.558716,15.600126 
	C196.417007,16.812765 190.710175,17.917809 184.606964,19.027138 
	C176.443161,21.593748 168.675735,24.156075 160.587891,26.747639 
	C159.839996,26.795868 159.412521,26.814863 158.985031,26.833858 
z"/>
<path fill="#213A4F" opacity="1.000000" stroke="none" 
	d="
M202.993591,15.492527 
	C200.428925,12.052169 197.897888,8.585944 195.281952,5.185022 
	C194.324692,3.940498 193.166016,2.850891 192.049591,1.345310 
	C205.687561,1.000000 219.375122,1.000000 233.531342,1.000000 
	C233.615280,5.462697 231.499741,10.188501 235.638474,14.328537 
	C234.570526,14.831069 233.827255,14.919285 232.645996,14.802764 
	C222.801743,15.046460 213.395462,15.494893 203.741394,15.828220 
	C203.326920,15.639585 203.160263,15.566054 202.993591,15.492527 
z"/>
<path fill="#9EA6AC" opacity="1.000000" stroke="none" 
	d="
M288.973511,27.150089 
	C289.659821,27.276262 290.346100,27.402435 291.373169,27.614990 
	C306.488556,34.898602 321.022949,42.486259 333.834290,52.967602 
	C350.713837,66.777267 364.788452,82.918076 374.791809,102.603821 
	C372.861725,102.570122 371.192230,102.185852 370.528473,102.033081 
	C369.330719,104.495461 368.832489,107.660866 367.188263,108.455688 
	C363.734192,110.125381 362.600861,106.686836 361.111450,104.262032 
	C360.483521,103.239777 358.953918,102.771355 357.573364,101.850449 
	C346.817047,85.639183 334.083496,71.551575 318.192932,60.970352 
	C306.389679,53.110817 293.415161,47.010265 281.019745,39.765709 
	C283.709259,35.320160 286.341370,31.235125 288.973511,27.150089 
z"/>
<path fill="#9CA4A9" opacity="1.000000" stroke="none" 
	d="
M357.834198,102.051186 
	C358.953918,102.771355 360.483521,103.239777 361.111450,104.262032 
	C362.600861,106.686836 363.734192,110.125381 367.188263,108.455688 
	C368.832489,107.660866 369.330719,104.495461 370.528473,102.033081 
	C371.192230,102.185852 372.861725,102.570122 374.925232,102.934883 
	C375.978973,103.797806 376.638733,104.680229 377.471008,105.777725 
	C380.551666,112.766647 383.459747,119.540497 386.138367,126.631149 
	C382.309265,125.456902 379.998077,127.444000 377.638672,129.782394 
	C376.325134,131.084198 374.570953,131.941422 372.799316,132.713547 
	C367.666901,122.302460 362.750549,112.176819 357.834198,102.051186 
z"/>
<path fill="#0A1926" opacity="1.000000" stroke="none" 
	d="
M78.972122,75.349197 
	C87.043556,69.866165 95.039459,64.684944 103.106285,59.616604 
	C104.101456,58.991341 105.474800,58.967979 106.850540,59.107277 
	C107.028168,59.548851 106.958351,59.954769 106.659363,60.100414 
	C97.543526,70.815277 88.726669,81.384499 79.636261,92.143753 
	C76.542923,97.209663 73.723122,102.085548 70.637405,107.176491 
	C67.218025,114.584717 64.064560,121.777878 60.670849,129.232727 
	C59.304451,133.003586 58.178291,136.512756 56.804203,140.238632 
	C56.374725,141.305359 56.193172,142.155350 56.006149,143.002075 
	C56.000679,142.998779 56.002579,143.009399 55.798981,143.110321 
	C55.331944,143.396637 55.180809,143.649200 55.134975,144.307343 
	C55.152802,145.096329 55.177624,145.546890 55.099617,146.377075 
	C53.376373,156.164429 51.755955,165.572174 50.102654,175.440125 
	C49.764046,181.189240 48.694172,186.568222 49.304726,191.749146 
	C50.774105,204.217789 52.728138,216.650543 55.048035,228.992233 
	C57.801445,243.640228 63.812050,257.266449 71.274155,269.961853 
	C77.281860,280.182892 85.233109,289.257202 92.267952,298.879852 
	C101.419525,311.397919 113.609322,320.657562 126.128456,329.290283 
	C143.408676,341.206055 161.901276,351.078766 182.732315,355.261230 
	C195.039139,357.732147 207.571854,359.077850 220.468216,360.950165 
	C228.160233,360.623474 235.414368,360.554199 242.605713,359.846710 
	C249.113068,359.206512 255.551895,357.869751 262.397369,356.806915 
	C265.515442,356.179657 268.257080,355.585602 270.998718,354.991547 
	C268.621918,364.093964 262.717224,366.381653 253.461807,367.406891 
	C232.501251,369.728668 211.589691,368.935425 190.680817,368.773407 
	C180.218582,368.692352 168.963043,368.180298 159.571869,364.258209 
	C151.638123,360.944855 143.200165,360.218994 135.376114,356.803528 
	C130.713242,354.768005 126.187645,353.826538 123.577492,348.936035 
	C123.096107,348.034088 120.867050,348.135956 119.502892,347.620392 
	C115.836006,346.234528 115.501732,343.439392 118.142639,340.679108 
	C119.660133,339.093018 121.380653,336.721619 121.296822,334.777588 
	C121.093727,330.067932 117.305756,332.735229 115.089127,332.145813 
	C114.800415,332.746979 114.550774,333.030304 114.543472,333.319733 
	C114.488899,335.480011 114.482292,337.641479 114.460648,339.802551 
	C111.297897,338.825562 106.736153,338.801086 105.279884,336.662231 
	C102.692856,332.862579 100.024048,330.628235 95.568642,329.933899 
	C91.993271,329.376709 90.448486,326.571106 91.259094,323.344788 
	C92.054619,320.178497 91.334335,318.832825 88.297699,317.883362 
	C81.905548,315.884766 77.074493,312.169067 75.798233,305.069855 
	C75.714706,304.605194 75.420952,304.134186 75.110710,303.761169 
	C71.463264,299.375763 67.490158,295.223083 64.210190,290.580078 
	C60.424690,285.221466 57.166519,279.480957 53.834396,273.815125 
	C52.017727,270.726135 50.203617,267.562622 49.001251,264.212769 
	C48.282253,262.209595 48.378139,259.715271 48.762653,257.558502 
	C49.438519,253.767487 52.553284,250.864639 45.819145,247.797836 
	C41.184505,245.687164 36.695210,238.774612 39.900139,231.552567 
	C33.555321,226.433334 32.352558,220.944962 35.485878,211.211151 
	C37.326141,205.494293 38.750710,200.057785 36.420120,193.855331 
	C35.097317,190.334900 36.154377,185.950027 35.974026,181.961945 
	C35.802162,178.161377 35.259369,174.373444 35.188099,170.574173 
	C35.152084,168.654099 35.304646,166.423248 36.247631,164.861740 
	C37.786617,162.313324 38.401699,160.270233 36.585060,157.563797 
	C35.917057,156.568588 36.085449,154.576233 36.575027,153.310532 
	C39.735855,145.138794 43.093155,137.043106 46.377281,128.918945 
	C46.561237,128.463867 46.938999,127.820663 46.770283,127.528641 
	C43.087296,121.154305 49.247257,117.820389 51.224632,113.251152 
	C53.034790,109.068314 54.718903,104.625542 57.490311,101.110878 
	C61.961166,95.441025 67.316406,90.473160 72.203720,85.122589 
	C73.037262,84.210030 73.399803,82.867241 73.987175,81.353981 
	C75.635681,79.218315 77.276947,77.451874 78.972122,75.349197 
M134.165237,346.529053 
	C135.683777,346.529053 137.202316,346.529053 138.720840,346.529053 
	C138.802597,345.980347 138.884354,345.431641 138.966110,344.882935 
	C136.150009,343.522552 133.333908,342.162140 130.421082,340.755035 
	C127.154022,344.962402 131.464951,344.950348 134.165237,346.529053 
M95.566406,319.714447 
	C95.915794,320.316193 96.265182,320.917938 96.614578,321.519684 
	C96.997749,321.138367 97.380928,320.757080 97.764099,320.375763 
	C97.181618,320.024902 96.599129,319.674042 95.566406,319.714447 
z"/>
<path fill="#0C1C2B" opacity="1.000000" stroke="none" 
	d="
M63.711258,88.160751 
	C63.934162,91.488991 62.041924,93.359283 58.365417,93.989555 
	C59.804626,92.102760 61.612679,90.207497 63.711258,88.160751 
z"/>
<path fill="#576771" opacity="1.000000" stroke="none" 
	d="
M356.086243,301.028748 
	C353.145905,304.435089 350.205597,307.841461 347.112244,311.529419 
	C345.476624,313.074799 343.994049,314.338531 341.809479,315.800415 
	C337.450562,315.430756 333.424713,315.566650 330.322876,313.940277 
	C329.123871,313.311584 330.019836,308.687256 330.133667,305.606537 
	C337.499542,297.811615 344.693054,290.293427 352.060913,283.168457 
	C352.340485,287.650543 352.909241,291.797241 352.408356,295.810425 
	C351.986633,299.189423 352.377045,301.015625 356.086243,301.028748 
z"/>
<path fill="#53636E" opacity="1.000000" stroke="none" 
	d="
M329.961365,305.883301 
	C330.019836,308.687256 329.123871,313.311584 330.322876,313.940277 
	C333.424713,315.566650 337.450562,315.430756 341.551025,315.998352 
	C337.446533,319.806946 332.898499,323.615814 327.918091,327.813538 
	C327.246613,328.452698 327.007507,328.702972 326.768433,328.953278 
	C326.528442,328.990692 326.319946,329.092468 326.038239,329.394562 
	C324.888489,330.047394 323.843414,330.564240 322.266296,330.893982 
	C317.870178,327.421814 311.720764,326.427155 311.216797,319.740112 
	C317.610931,314.951935 323.786163,310.417633 329.961365,305.883301 
z"/>
<path fill="#0B1B28" opacity="1.000000" stroke="none" 
	d="
M327.006744,328.953918 
	C327.007507,328.702972 327.246613,328.452698 327.713318,328.077454 
	C327.708984,328.286560 327.477020,328.620575 327.006744,328.953918 
z"/>
<path fill="#5D6C77" opacity="1.000000" stroke="none" 
	d="
M356.346863,300.828461 
	C352.377045,301.015625 351.986633,299.189423 352.408356,295.810425 
	C352.909241,291.797241 352.340485,287.650543 352.135559,282.845428 
	C355.974548,276.320190 359.913269,270.511230 364.007019,265.042236 
	C366.848694,268.525208 366.008759,274.143585 369.923370,275.422211 
	C372.892059,273.925873 374.818665,272.954803 376.745239,271.983704 
	C370.032654,281.531860 363.320068,291.080017 356.346863,300.828461 
z"/>
<path fill="#616F78" opacity="1.000000" stroke="none" 
	d="
M376.894775,271.781342 
	C374.818665,272.954803 372.892059,273.925873 369.923370,275.422211 
	C366.008759,274.143585 366.848694,268.525208 364.083557,264.711670 
	C366.647125,258.648071 369.289246,253.255081 372.153564,248.102509 
	C376.815460,246.503326 380.709961,246.766464 383.728088,251.062592 
	C384.112396,251.609680 385.166748,251.686050 385.910675,251.980515 
	C383.270508,258.061554 380.630341,264.142609 377.885864,270.568573 
	C377.535797,271.135315 377.290070,271.357147 376.894775,271.781342 
z"/>
<path fill="#314450" opacity="1.000000" stroke="none" 
	d="
M271.263031,354.740448 
	C268.257080,355.585602 265.515442,356.179657 262.305664,356.489563 
	C257.366272,352.523743 253.036743,348.773834 255.396637,341.975494 
	C268.864410,337.637939 281.933990,333.320862 295.048981,329.355957 
	C297.724823,333.784729 300.355225,337.861389 302.985626,341.938049 
	C292.499542,346.121826 282.013428,350.305573 271.263031,354.740448 
z"/>
<path fill="#4D5D68" opacity="1.000000" stroke="none" 
	d="
M303.345612,341.900085 
	C300.355225,337.861389 297.724823,333.784729 295.333923,329.167114 
	C300.714935,325.748779 305.856445,322.871399 310.997925,319.994019 
	C311.720764,326.427155 317.870178,327.421814 321.940491,331.012848 
	C315.999725,334.833282 309.852661,338.347717 303.345612,341.900085 
z"/>
<path fill="#616F78" opacity="1.000000" stroke="none" 
	d="
M122.837936,46.353264 
	C124.791901,45.093807 126.555618,44.099724 128.926575,43.266052 
	C132.074402,47.502972 134.614960,51.579483 136.947571,55.874374 
	C131.546204,59.904415 126.352814,63.716076 121.122131,67.081604 
	C120.691414,64.587646 120.420509,62.506626 119.876564,60.499611 
	C119.007851,57.294346 117.957718,54.138256 116.984283,50.961372 
	C118.872093,49.513794 120.759888,48.066216 122.837936,46.353264 
z"/>
<path fill="#5D6C77" opacity="1.000000" stroke="none" 
	d="
M116.687630,51.114182 
	C117.957718,54.138256 119.007851,57.294346 119.876564,60.499611 
	C120.420509,62.506626 120.691414,64.587646 120.926437,67.312790 
	C118.207886,70.355377 115.647728,72.720650 112.769356,74.896935 
	C111.637138,73.005325 110.673256,71.356224 110.041977,69.588371 
	C108.908730,66.414795 107.975281,63.169876 106.958351,59.954769 
	C106.958351,59.954769 107.028168,59.548851 107.066109,59.346985 
	C110.199692,56.519077 113.295334,53.893036 116.687630,51.114182 
z"/>
<path fill="#818C92" opacity="1.000000" stroke="none" 
	d="
M394.910767,157.985138 
	C395.935577,165.388855 396.960388,172.792587 398.065308,180.624832 
	C398.145447,181.053360 397.956543,180.995819 397.504791,181.006378 
	C396.323181,181.945602 395.577850,182.862595 394.866791,183.805420 
	C393.600098,185.485016 392.354156,187.180267 391.099487,188.868958 
	C390.061768,187.213364 388.553375,185.677963 388.092865,183.874939 
	C387.338043,180.919632 385.837067,179.659897 382.773834,179.602707 
	C382.075073,173.478790 381.482727,167.756607 381.311157,162.025894 
	C384.123169,161.252899 386.507874,160.467300 388.907623,159.730469 
	C390.899506,159.118881 392.909058,158.564743 394.910767,157.985138 
z"/>
<path fill="#949DA1" opacity="1.000000" stroke="none" 
	d="
M373.015350,132.998993 
	C374.570953,131.941422 376.325134,131.084198 377.638672,129.782394 
	C379.998077,127.444000 382.309265,125.456902 386.243591,126.956299 
	C388.345490,132.385468 390.112579,137.806290 391.492432,143.622620 
	C386.717041,145.680817 382.328857,147.343491 377.750977,148.690689 
	C376.045990,143.249802 374.530670,138.124390 373.015350,132.998993 
z"/>
<path fill="#8D969B" opacity="1.000000" stroke="none" 
	d="
M377.940674,149.006165 
	C382.328857,147.343491 386.717041,145.680817 391.466492,144.004181 
	C392.865784,148.389053 393.903748,152.787857 394.926239,157.585907 
	C392.909058,158.564743 390.899506,159.118881 388.907623,159.730469 
	C386.507874,160.467300 384.123169,161.252899 381.088928,161.721100 
	C379.610840,157.285263 378.775757,153.145721 377.940674,149.006165 
z"/>
<path fill="#717D85" opacity="1.000000" stroke="none" 
	d="
M397.026062,205.006683 
	C395.644867,214.057877 394.263672,223.109070 392.872375,232.570831 
	C392.701416,233.238083 392.517395,233.476852 391.779541,233.786255 
	C390.061279,232.427780 388.902069,229.770340 387.681000,229.741608 
	C382.157043,229.611633 382.005829,224.813202 379.878448,221.337646 
	C380.834412,212.940399 381.780609,204.952789 383.051697,197.101990 
	C387.425842,200.707687 389.898438,206.946991 397.026062,205.006683 
z"/>
<path fill="#6B7780" opacity="1.000000" stroke="none" 
	d="
M379.868652,221.747269 
	C382.005829,224.813202 382.157043,229.611633 387.681000,229.741608 
	C388.902069,229.770340 390.061279,232.427780 391.603394,233.928986 
	C390.062622,239.764191 388.167419,245.545212 386.091431,251.653366 
	C385.166748,251.686050 384.112396,251.609680 383.728088,251.062592 
	C380.709961,246.766464 376.815460,246.503326 372.210388,247.742737 
	C374.652832,238.677429 377.260742,230.212357 379.868652,221.747269 
z"/>
<path fill="#7E898F" opacity="1.000000" stroke="none" 
	d="
M397.066376,204.582214 
	C389.898438,206.946991 387.425842,200.707687 383.069946,196.636429 
	C382.802277,190.690826 382.841278,185.347626 382.880249,180.004425 
	C385.837067,179.659897 387.338043,180.919632 388.092865,183.874939 
	C388.553375,185.677963 390.061768,187.213364 391.099487,188.868958 
	C392.354156,187.180267 393.600098,185.485016 394.866791,183.805420 
	C395.577850,182.862595 396.323181,181.945602 397.412964,180.970184 
	C397.550812,188.668182 397.328766,196.412949 397.066376,204.582214 
z"/>
<path fill="#6B7780" opacity="1.000000" stroke="none" 
	d="
M137.155533,55.655991 
	C134.614960,51.579483 132.074402,47.502972 129.262695,43.210785 
	C134.249603,39.933258 139.507629,36.871410 145.467377,34.017723 
	C146.795288,35.842255 147.655304,37.410988 147.996460,39.085434 
	C148.608459,42.089184 148.908569,45.156479 149.110199,48.463993 
	C144.972778,51.039177 141.064148,53.347584 137.155533,55.655991 
z"/>
<path fill="#758188" opacity="1.000000" stroke="none" 
	d="
M149.339005,48.197216 
	C148.908569,45.156479 148.608459,42.089184 147.996460,39.085434 
	C147.655304,37.410988 146.795288,35.842255 145.815842,34.017250 
	C149.762802,31.609596 154.062988,29.410572 158.674103,27.022703 
	C159.412521,26.814863 159.839996,26.795868 160.613495,27.204533 
	C160.975937,32.672428 160.992386,37.712666 160.686340,42.930569 
	C156.688904,44.804562 153.013947,46.500889 149.339005,48.197216 
z"/>
<path fill="#969EA3" opacity="1.000000" stroke="none" 
	d="
M233.083969,15.007500 
	C233.827255,14.919285 234.570526,14.831069 235.690948,14.728949 
	C244.583649,15.917821 253.099228,17.120598 261.655334,18.806316 
	C261.891815,20.442282 261.737762,21.838648 262.342072,22.707655 
	C265.543762,27.311678 264.681000,29.509712 259.026978,31.008186 
	C257.938843,31.296576 257.011200,32.190567 255.615356,32.812027 
	C246.818100,31.824966 238.415009,30.831064 230.091583,29.510536 
	C235.585068,26.181292 237.623611,22.379063 233.183395,16.919298 
	C232.858261,16.519506 233.103775,15.655620 233.083969,15.007500 
z"/>
<path fill="#9CA4A9" opacity="1.000000" stroke="none" 
	d="
M256.009552,32.805187 
	C257.011200,32.190567 257.938843,31.296576 259.026978,31.008186 
	C264.681000,29.509712 265.543762,27.311678 262.342072,22.707655 
	C261.737762,21.838648 261.891815,20.442282 261.962219,19.060612 
	C270.957367,21.451145 279.686218,24.070326 288.694275,26.919796 
	C286.341370,31.235125 283.709259,35.320160 280.639893,39.727715 
	C272.138275,37.635216 264.073914,35.220203 256.009552,32.805187 
z"/>
<path fill="#7B868D" opacity="1.000000" stroke="none" 
	d="
M161.008850,42.752907 
	C160.992386,37.712666 160.975937,32.672428 160.933899,27.175297 
	C168.675735,24.156075 176.443161,21.593748 184.657104,19.388672 
	C185.260513,21.007500 186.028412,22.863703 185.474167,23.433178 
	C182.126801,26.872658 183.140244,31.054977 182.719788,35.276642 
	C175.289200,37.913883 168.149033,40.333397 161.008850,42.752907 
z"/>
<path fill="#818C92" opacity="1.000000" stroke="none" 
	d="
M183.010193,35.058910 
	C183.140244,31.054977 182.126801,26.872658 185.474167,23.433178 
	C186.028412,22.863703 185.260513,21.007500 185.053467,19.384388 
	C190.710175,17.917809 196.417007,16.812765 202.558716,15.600123 
	C203.160263,15.566054 203.326920,15.639585 203.745880,16.237194 
	C205.339554,21.383417 206.680908,26.005558 207.593201,30.740192 
	C199.112823,32.254761 191.061508,33.656834 183.010193,35.058910 
z"/>
<path fill="#8D969B" opacity="1.000000" stroke="none" 
	d="
M208.022263,30.627701 
	C206.680908,26.005558 205.339554,21.383417 203.993698,16.352303 
	C213.395462,15.494893 222.801743,15.046460 232.645996,14.802763 
	C233.103775,15.655620 232.858261,16.519506 233.183395,16.919298 
	C237.623611,22.379063 235.585068,26.181292 229.627213,29.582165 
	C222.062897,30.196182 215.042572,30.411942 208.022263,30.627701 
z"/>
<path fill="#0F1F2E" opacity="1.000000" stroke="none" 
	d="
M207.593201,30.740192 
	C215.042572,30.411942 222.062897,30.196182 229.547577,29.908794 
	C238.415009,30.831064 246.818100,31.824966 255.615356,32.812027 
	C264.073914,35.220203 272.138275,37.635216 280.582520,40.088226 
	C293.415161,47.010265 306.389679,53.110817 318.192932,60.970352 
	C334.083496,71.551575 346.817047,85.639183 357.573364,101.850449 
	C362.750549,112.176819 367.666901,122.302460 372.799316,132.713547 
	C374.530670,138.124390 376.045990,143.249802 377.750977,148.690674 
	C378.775757,153.145721 379.610840,157.285263 380.668152,161.729614 
	C381.482727,167.756607 382.075073,173.478790 382.773834,179.602707 
	C382.841278,185.347626 382.802277,190.690826 382.745056,196.499603 
	C381.780609,204.952789 380.834412,212.940399 379.878448,221.337646 
	C377.260742,230.212357 374.652832,238.677429 371.988129,247.502304 
	C369.289246,253.255081 366.647125,258.648071 363.928528,264.371643 
	C359.913269,270.511230 355.974548,276.320190 351.961182,282.452209 
	C344.693054,290.293427 337.499542,297.811615 330.133667,305.606537 
	C323.786163,310.417633 317.610931,314.951935 311.216797,319.740112 
	C305.856445,322.871399 300.714935,325.748779 295.288513,328.814972 
	C281.933990,333.320862 268.864410,337.637939 254.964783,341.974060 
	C239.384644,342.661713 224.636963,343.396606 209.882156,343.936798 
	C207.281128,344.032074 204.650284,343.313324 201.731552,342.715271 
	C181.893906,339.446075 163.467117,333.298706 146.369644,323.249207 
	C130.367859,313.843689 116.286118,302.286438 103.759377,288.483032 
	C85.735146,268.621887 74.277878,245.534714 69.188553,219.556168 
	C66.659866,206.648453 66.930122,193.192398 65.951706,179.538193 
	C66.664955,171.734131 67.360687,164.376282 68.306564,156.751434 
	C69.725616,151.664902 70.894524,146.845337 72.304123,141.758820 
	C75.415352,134.041351 78.285904,126.590843 81.383377,118.879654 
	C84.066231,114.076202 86.522163,109.533432 89.242622,104.769409 
	C90.874641,102.335281 92.005539,99.925903 93.651451,97.944283 
	C100.041328,90.251053 106.594925,82.693794 113.087578,75.085922 
	C115.647728,72.720650 118.207886,70.355377 120.963737,67.758926 
	C126.352814,63.716076 131.546204,59.904415 136.947571,55.874374 
	C141.064148,53.347584 144.972778,51.039177 149.110199,48.463993 
	C153.013947,46.500889 156.688904,44.804562 160.686340,42.930573 
	C168.149033,40.333397 175.289200,37.913883 182.719788,35.276642 
	C191.061508,33.656834 199.112823,32.254761 207.593201,30.740192 
M347.876160,259.698639 
	C350.189484,255.125336 352.502808,250.552017 355.241669,245.367874 
	C357.658661,237.957260 360.075684,230.546646 362.847321,222.480148 
	C363.705658,216.971725 364.563995,211.463303 365.698792,205.076431 
	C365.984833,197.034561 366.270874,188.992691 366.634369,180.027603 
	C365.834595,166.410599 363.728271,153.064987 358.363617,139.666214 
	C352.620728,122.561462 343.338348,107.547050 331.376373,94.136024 
	C315.050476,75.832443 295.449310,62.392181 271.581848,54.085793 
	C261.396057,51.863346 251.210251,49.640903 240.179886,47.094124 
	C231.785736,47.053745 223.391586,47.013371 214.117691,46.791576 
	C209.417709,47.279350 204.717743,47.767124 199.242340,48.151672 
	C195.493195,49.074368 191.744034,49.997063 187.190750,50.869213 
	C180.056366,53.385872 172.921982,55.902534 165.063858,58.608330 
	C159.367416,61.718052 153.670975,64.827774 147.316238,68.136772 
	C142.201706,72.068268 137.087158,75.999756 131.364792,80.216835 
	C127.133415,84.789902 122.902039,89.362976 118.026108,94.063759 
	C116.251625,95.977943 114.121483,97.670166 112.764381,99.844818 
	C106.965240,109.137489 101.394279,118.572556 95.291664,128.430161 
	C94.189178,130.954254 93.086693,133.478333 91.669533,136.658676 
	C89.756416,143.076706 87.843300,149.494751 85.421432,156.482300 
	C84.852112,159.733719 84.341644,162.996719 83.703560,166.234589 
	C80.437294,182.808716 81.334885,199.399963 84.892128,215.686615 
	C90.844528,242.939377 103.529419,266.453979 124.095032,285.930847 
	C143.663712,304.463562 165.876480,317.504517 192.797058,324.095184 
	C205.729919,326.878784 218.741104,328.839752 232.849396,327.775635 
	C240.549911,326.841888 248.426895,326.627014 255.905991,324.791138 
	C265.110931,322.531647 273.984161,318.920715 283.723663,315.817566 
	C291.827667,311.248535 299.931702,306.679504 308.703033,301.931610 
	C313.592773,297.866943 318.482513,293.802277 323.962311,289.363098 
	C328.845581,283.902069 333.728851,278.441010 339.122742,272.458954 
	C341.888214,268.367035 344.653687,264.275116 347.876160,259.698639 
z"/>
<path fill="#263845" opacity="1.000000" stroke="none" 
	d="
M65.934181,179.984406 
	C66.930122,193.192398 66.659866,206.648453 69.188553,219.556168 
	C74.277878,245.534714 85.735146,268.621887 103.759377,288.483032 
	C116.286118,302.286438 130.367859,313.843689 146.369644,323.249207 
	C163.467117,333.298706 181.893906,339.446075 201.493347,342.945801 
	C203.339844,351.992310 210.648361,355.034576 217.064835,358.973572 
	C218.066864,359.588684 219.024704,360.275787 220.002975,360.929565 
	C207.571854,359.077850 195.039139,357.732147 182.732315,355.261230 
	C161.901276,351.078766 143.408676,341.206055 126.128456,329.290283 
	C113.609322,320.657562 101.419525,311.397919 92.267952,298.879852 
	C85.233109,289.257202 77.281860,280.182892 71.274155,269.961853 
	C63.812050,257.266449 57.801445,243.640228 55.048035,228.992233 
	C52.728138,216.650543 50.774105,204.217789 49.304726,191.749146 
	C48.694172,186.568222 49.764046,181.189240 50.445908,175.509552 
	C51.875397,176.824936 53.644783,178.452179 53.843182,180.252533 
	C54.365887,184.995758 56.683605,185.141724 60.101982,183.390533 
	C62.102631,182.365601 63.993774,181.126923 65.934181,179.984406 
z"/>
<path fill="#2A3C48" opacity="1.000000" stroke="none" 
	d="
M220.468216,360.950195 
	C219.024704,360.275787 218.066864,359.588684 217.064835,358.973572 
	C210.648361,355.034576 203.339844,351.992310 201.795013,343.200989 
	C204.650284,343.313324 207.281128,344.032074 209.882156,343.936798 
	C224.636963,343.396606 239.384644,342.661713 254.566605,341.994507 
	C253.036743,348.773834 257.366272,352.523743 261.929260,356.522766 
	C255.551895,357.869751 249.113068,359.206512 242.605713,359.846710 
	C235.414368,360.554199 228.160233,360.623474 220.468216,360.950195 
z"/>
<path fill="#495964" opacity="1.000000" stroke="none" 
	d="
M112.769356,74.896935 
	C106.594925,82.693794 100.041328,90.251053 93.651451,97.944283 
	C92.005539,99.925903 90.874641,102.335281 88.888115,104.722855 
	C86.386086,103.097519 84.100098,101.556274 82.731888,99.425659 
	C81.324814,97.234512 80.813240,94.468292 79.909805,91.953720 
	C88.726669,81.384499 97.543526,70.815277 106.659363,60.100414 
	C107.975281,63.169876 108.908730,66.414795 110.041977,69.588371 
	C110.673256,71.356224 111.637138,73.005325 112.769356,74.896935 
z"/>
<path fill="#2C3F4B" opacity="1.000000" stroke="none" 
	d="
M65.951706,179.538193 
	C63.993774,181.126923 62.102631,182.365601 60.101982,183.390533 
	C56.683605,185.141724 54.365887,184.995758 53.843182,180.252533 
	C53.644783,178.452179 51.875397,176.824936 50.478798,175.049347 
	C51.755955,165.572174 53.376373,156.164429 55.430962,146.489990 
	C56.661472,148.336777 57.555199,150.419769 58.229134,152.571609 
	C59.044491,155.175034 59.673847,157.836685 60.383690,160.473145 
	C62.941269,159.321564 65.498848,158.169998 68.056427,157.018433 
	C67.360687,164.376282 66.664955,171.734131 65.951706,179.538193 
z"/>
<path fill="#314450" opacity="1.000000" stroke="none" 
	d="
M68.306564,156.751434 
	C65.498848,158.169998 62.941269,159.321564 60.383690,160.473145 
	C59.673847,157.836685 59.044491,155.175034 58.229134,152.571609 
	C57.555199,150.419769 56.661472,148.336777 55.533791,146.110367 
	C55.177624,145.546890 55.152802,145.096329 55.313957,144.183960 
	C55.721615,143.522781 55.889160,143.285187 56.002579,143.009399 
	C56.002579,143.009399 56.000679,142.998779 56.314423,142.942719 
	C56.769489,141.931747 56.910812,140.976837 57.052132,140.021912 
	C58.178291,136.512756 59.304451,133.003586 61.030800,129.284317 
	C66.407410,131.724915 71.799568,133.908020 70.544403,141.083420 
	C70.506126,141.302292 71.533096,141.707474 72.063438,142.025787 
	C70.894524,146.845337 69.725616,151.664902 68.306564,156.751434 
z"/>
<path fill="#374954" opacity="1.000000" stroke="none" 
	d="
M72.304123,141.758820 
	C71.533096,141.707474 70.506126,141.302292 70.544403,141.083420 
	C71.799568,133.908020 66.407410,131.724915 61.271038,129.022614 
	C64.064560,121.777878 67.218025,114.584717 70.948021,107.348930 
	C74.735184,111.250984 77.945824,115.195663 81.156456,119.140343 
	C78.285904,126.590843 75.415352,134.041351 72.304123,141.758820 
z"/>
<path fill="#45565F" opacity="1.000000" stroke="none" 
	d="
M81.383377,118.879654 
	C77.945824,115.195663 74.735184,111.250984 71.213943,107.133865 
	C73.723122,102.085548 76.542923,97.209663 79.636261,92.143753 
	C80.813240,94.468292 81.324814,97.234512 82.731888,99.425659 
	C84.100098,101.556274 86.386086,103.097519 88.623581,104.944107 
	C86.522163,109.533432 84.066231,114.076202 81.383377,118.879654 
z"/>
<path fill="#0B1B28" opacity="1.000000" stroke="none" 
	d="
M133.811432,346.369202 
	C131.464951,344.950348 127.154022,344.962402 130.421082,340.755035 
	C133.333908,342.162140 136.150009,343.522552 138.966110,344.882935 
	C138.884354,345.431641 138.802597,345.980347 138.720840,346.529053 
	C137.202316,346.529053 135.683777,346.529053 133.811432,346.369202 
z"/>
<path fill="#0B1B28" opacity="1.000000" stroke="none" 
	d="
M95.791527,319.518799 
	C96.599129,319.674042 97.181618,320.024902 97.764099,320.375763 
	C97.380928,320.757080 96.997749,321.138367 96.614578,321.519684 
	C96.265182,320.917938 95.915794,320.316193 95.791527,319.518799 
z"/>
<path fill="#2C3F4B" opacity="1.000000" stroke="none" 
	d="
M56.804207,140.238632 
	C56.910812,140.976837 56.769489,141.931747 56.319893,142.946014 
	C56.193172,142.155350 56.374725,141.305359 56.804207,140.238632 
z"/>
<path fill="#2C3F4B" opacity="1.000000" stroke="none" 
	d="
M55.798981,143.110321 
	C55.889160,143.285187 55.721615,143.522781 55.320953,143.845566 
	C55.180809,143.649200 55.331944,143.396637 55.798981,143.110321 
z"/>
<path fill="#2C3F4B" opacity="1.000000" stroke="none" 
	d="
M192.009064,323.926819 
	C165.876480,317.504517 143.663712,304.463562 124.095032,285.930847 
	C103.529419,266.453979 90.844528,242.939377 84.892128,215.686615 
	C81.334885,199.399963 80.437294,182.808716 83.703560,166.234589 
	C84.341644,162.996719 84.852112,159.733719 85.848434,156.564728 
	C86.923637,161.803345 87.479446,166.977173 94.422432,167.509171 
	C95.024796,167.555328 95.462036,169.030869 96.077606,169.756195 
	C98.710014,172.858047 101.380562,175.927505 104.045464,179.475113 
	C104.941055,190.814621 104.960556,201.847229 106.921745,212.523117 
	C109.770271,228.029312 116.762138,242.003967 125.919518,254.895386 
	C137.707275,271.489746 152.773209,284.226105 171.072235,292.920441 
	C179.426010,296.889526 188.340240,299.679047 196.914993,303.356323 
	C195.564041,305.240051 193.446838,306.641998 193.191666,308.326111 
	C192.412598,313.468018 192.350281,318.718567 192.009064,323.926819 
z"/>
<path fill="#A1A9AE" opacity="1.000000" stroke="none" 
	d="
M272.171234,54.448471 
	C295.449310,62.392181 315.050476,75.832443 331.376373,94.136024 
	C343.338348,107.547050 352.620728,122.561462 358.117676,140.380249 
	C356.398895,141.721695 354.907776,142.922333 353.456543,142.875870 
	C347.619293,142.689026 342.262451,143.238663 338.797974,148.709930 
	C325.553070,114.663681 302.686707,90.453011 269.012543,76.279892 
	C270.063873,68.704651 271.117554,61.576561 272.171234,54.448471 
z"/>
<path fill="#374954" opacity="1.000000" stroke="none" 
	d="
M283.000763,315.893890 
	C273.984161,318.920715 265.110931,322.531647 255.905991,324.791138 
	C248.426895,326.627014 240.549911,326.841888 232.435593,327.393860 
	C232.679916,320.003357 233.338058,312.994568 234.410187,305.960541 
	C247.123520,303.224457 259.422852,300.513672 271.821594,298.157684 
	C272.859039,300.062805 273.762207,301.635498 274.741760,303.159149 
	C277.477844,307.414948 280.245544,311.650391 283.000763,315.893890 
z"/>
<path fill="#2F424E" opacity="1.000000" stroke="none" 
	d="
M233.996185,305.985809 
	C233.338058,312.994568 232.679916,320.003357 232.028412,327.421906 
	C218.741104,328.839752 205.729919,326.878784 192.403061,324.010986 
	C192.350281,318.718567 192.412598,313.468018 193.191666,308.326111 
	C193.446838,306.641998 195.564041,305.240051 197.332565,303.363464 
	C209.889008,304.007172 221.942596,304.996490 233.996185,305.985809 
z"/>
<path fill="#45565F" opacity="1.000000" stroke="none" 
	d="
M95.740089,127.955681 
	C101.394279,118.572556 106.965240,109.137489 112.764381,99.844818 
	C114.121483,97.670166 116.251625,95.977943 118.671600,94.189117 
	C119.964127,95.632103 120.539162,96.991249 121.270943,98.260002 
	C124.089096,103.146080 126.957390,108.003235 129.712738,113.193649 
	C124.401794,122.339661 119.185081,131.163193 113.605949,139.983368 
	C111.756577,139.082047 110.212372,138.265747 108.793343,137.270905 
	C104.416595,134.202438 100.087624,131.065811 95.740089,127.955681 
z"/>
<path fill="#9CA4A9" opacity="1.000000" stroke="none" 
	d="
M339.015076,148.998947 
	C342.262451,143.238663 347.619293,142.689026 353.456543,142.875870 
	C354.907776,142.922333 356.398895,141.721695 358.136261,140.741364 
	C363.728271,153.064987 365.834595,166.410599 366.207520,180.463318 
	C362.984741,179.330383 360.753540,176.704956 356.887115,177.252487 
	C355.706604,177.419662 353.341400,175.785324 353.059753,174.607513 
	C351.792023,169.306015 347.907318,169.880676 343.947968,169.610565 
	C342.207703,162.484985 340.611389,155.741974 339.015076,148.998947 
z"/>
<path fill="#616F78" opacity="1.000000" stroke="none" 
	d="
M283.362213,315.855713 
	C280.245544,311.650391 277.477844,307.414948 274.741760,303.159149 
	C273.762207,301.635498 272.859039,300.062805 272.102417,297.942688 
	C281.292938,292.155579 290.302094,286.938232 299.636536,281.916931 
	C299.940643,283.292053 299.864746,284.473236 299.910797,285.649628 
	C299.983307,287.501923 299.463562,289.842133 300.385712,291.108154 
	C303.017883,294.721954 303.448822,299.895966 308.035706,302.110474 
	C299.931702,306.679504 291.827667,311.248535 283.362213,315.855713 
z"/>
<path fill="#314450" opacity="1.000000" stroke="none" 
	d="
M104.037201,179.008774 
	C101.380562,175.927505 98.710014,172.858047 96.077606,169.756195 
	C95.462036,169.030869 95.024796,167.555328 94.422432,167.509171 
	C87.479446,166.977173 86.923637,161.803345 86.102814,156.279968 
	C87.843300,149.494751 89.756416,143.076706 92.176056,136.378662 
	C96.848824,138.992401 100.941765,142.001312 105.217506,144.723053 
	C106.918854,145.806061 109.024803,146.253448 110.907990,147.365021 
	C107.088921,157.834396 104.844597,168.264603 104.037201,179.008774 
z"/>
<path fill="#9CA4A9" opacity="1.000000" stroke="none" 
	d="
M271.876526,54.267132 
	C271.117554,61.576561 270.063873,68.704651 268.662476,76.218605 
	C260.543762,74.393112 252.772751,72.181755 245.002167,69.526093 
	C243.676529,61.860683 242.350494,54.639572 241.024460,47.418457 
	C251.210251,49.640903 261.396057,51.863346 271.876526,54.267132 
z"/>
<path fill="#949DA1" opacity="1.000000" stroke="none" 
	d="
M344.091919,169.993134 
	C347.907318,169.880676 351.792023,169.306015 353.059753,174.607513 
	C353.341400,175.785324 355.706604,177.419662 356.887115,177.252487 
	C360.753540,176.704956 362.984741,179.330383 366.168762,180.924927 
	C366.270874,188.992691 365.984833,197.034561 365.232300,205.507233 
	C363.551147,205.442581 361.903931,205.290619 361.192871,204.395233 
	C357.004974,199.121750 350.608124,199.703186 345.036377,197.528137 
	C344.690247,188.038971 344.391083,179.016052 344.091919,169.993134 
z"/>
<path fill="#969EA3" opacity="1.000000" stroke="none" 
	d="
M240.602173,47.256294 
	C242.350494,54.639572 243.676529,61.860683 244.566513,69.568878 
	C236.758987,69.577049 229.387527,69.098137 222.014740,68.240929 
	C221.487152,66.218140 220.983810,64.565872 220.430420,62.930557 
	C218.629288,57.608032 216.809830,52.291702 214.997437,46.972992 
	C223.391586,47.013371 231.785736,47.053745 240.602173,47.256294 
z"/>
<path fill="#818C92" opacity="1.000000" stroke="none" 
	d="
M165.787598,58.419189 
	C172.921982,55.902534 180.056366,53.385872 187.593964,51.345078 
	C187.553345,59.401192 187.200165,66.997719 183.716064,74.293983 
	C177.428680,77.080070 171.423416,79.654678 165.085464,81.985588 
	C161.788574,76.966660 162.778122,72.002266 163.985764,66.997597 
	C164.670837,64.158508 165.192383,61.279964 165.787598,58.419189 
z"/>
<path fill="#869095" opacity="1.000000" stroke="none" 
	d="
M362.492676,223.136032 
	C360.075684,230.546646 357.658661,237.957260 354.702148,245.620300 
	C352.314819,244.288162 350.662811,242.350845 348.577850,241.193481 
	C344.412109,238.881119 340.009033,236.996323 335.768646,234.560822 
	C338.009521,227.741714 340.185699,221.296722 342.732697,214.976501 
	C349.566559,217.779526 356.029602,220.457779 362.492676,223.136032 
z"/>
<path fill="#7B868D" opacity="1.000000" stroke="none" 
	d="
M165.425720,58.513760 
	C165.192383,61.279964 164.670837,64.158508 163.985764,66.997597 
	C162.778122,72.002266 161.788574,76.966660 164.852524,82.247818 
	C160.034470,85.862190 155.116638,88.970634 149.790771,92.055817 
	C145.831863,92.081383 144.947052,90.723877 145.649323,87.040314 
	C146.847916,80.753448 147.242325,74.313278 147.974533,67.937500 
	C153.670975,64.827774 159.367416,61.718052 165.425720,58.513760 
z"/>
<path fill="#717D85" opacity="1.000000" stroke="none" 
	d="
M338.612091,272.979950 
	C333.728851,278.441010 328.845581,283.902069 323.472839,289.197876 
	C321.629120,287.828430 320.171204,286.720978 318.940063,285.401825 
	C315.226929,281.423340 309.758636,278.441467 311.012878,271.359039 
	C314.717682,267.039093 318.260223,262.991974 322.155701,259.021179 
	C323.423401,260.569336 324.190887,262.161865 325.280029,263.490814 
	C328.851135,267.848389 332.771790,271.781891 338.612091,272.979950 
z"/>
<path fill="#758188" opacity="1.000000" stroke="none" 
	d="
M147.645386,68.037140 
	C147.242325,74.313278 146.847916,80.753448 145.649323,87.040314 
	C144.947052,90.723877 145.831863,92.081383 149.610260,92.345367 
	C146.009048,96.023460 142.180328,99.388733 138.185898,102.396233 
	C135.096664,98.843620 131.744537,95.923477 129.441772,92.330742 
	C128.389938,90.689697 129.113312,87.663284 129.576462,85.375519 
	C129.960846,83.476875 131.143570,81.739861 131.972610,79.931244 
	C137.087158,75.999756 142.201706,72.068268 147.645386,68.037140 
z"/>
<path fill="#8D969B" opacity="1.000000" stroke="none" 
	d="
M362.669983,222.808090 
	C356.029602,220.457779 349.566559,217.779526 342.807007,214.547394 
	C343.368134,208.660477 344.225769,203.327438 345.083374,197.994400 
	C350.608124,199.703186 357.004974,199.121750 361.192871,204.395233 
	C361.903931,205.290619 363.551147,205.442581 365.094086,205.946442 
	C364.563995,211.463303 363.705658,216.971725 362.669983,222.808090 
z"/>
<path fill="#6B7780" opacity="1.000000" stroke="none" 
	d="
M310.850616,271.631866 
	C309.758636,278.441467 315.226929,281.423340 318.940063,285.401825 
	C320.171204,286.720978 321.629120,287.828430 323.177795,289.385132 
	C318.482513,293.802277 313.592773,297.866943 308.369385,302.021057 
	C303.448822,299.895966 303.017883,294.721954 300.385712,291.108154 
	C299.463562,289.842133 299.983307,287.501923 299.910797,285.649628 
	C299.864746,284.473236 299.940643,283.292053 299.868652,281.648315 
	C303.467163,277.999695 307.158905,274.815796 310.850616,271.631866 
z"/>
<path fill="#8D969B" opacity="1.000000" stroke="none" 
	d="
M214.557556,46.882282 
	C216.809830,52.291702 218.629288,57.608032 220.430420,62.930557 
	C220.983810,64.565872 221.487152,66.218140 221.555908,68.331940 
	C214.732498,69.197479 208.366577,69.593727 201.938873,69.593185 
	C201.257309,62.215893 200.637543,55.235394 200.017761,48.254898 
	C204.717743,47.767124 209.417709,47.279350 214.557556,46.882282 
z"/>
<path fill="#7E898F" opacity="1.000000" stroke="none" 
	d="
M335.703979,234.934952 
	C340.009033,236.996323 344.412109,238.881119 348.577850,241.193481 
	C350.662811,242.350845 352.314819,244.288162 354.489380,245.925720 
	C352.502808,250.552017 350.189484,255.125336 347.272186,259.862671 
	C344.884583,258.624359 343.271759,256.878113 341.282410,255.890015 
	C336.897888,253.712296 332.323456,251.916992 327.913208,249.620056 
	C330.567932,244.494629 333.135956,239.714783 335.703979,234.934952 
z"/>
<path fill="#758188" opacity="1.000000" stroke="none" 
	d="
M327.826508,249.965637 
	C332.323456,251.916992 336.897888,253.712296 341.282410,255.890015 
	C343.271759,256.878113 344.884583,258.624359 347.043701,260.104919 
	C344.653687,264.275116 341.888214,268.367035 338.867432,272.719452 
	C332.771790,271.781891 328.851135,267.848389 325.280029,263.490814 
	C324.190887,262.161865 323.423401,260.569336 322.269226,258.693481 
	C323.962067,255.514877 325.894287,252.740250 327.826508,249.965637 
z"/>
<path fill="#869095" opacity="1.000000" stroke="none" 
	d="
M199.630051,48.203285 
	C200.637543,55.235394 201.257309,62.215893 201.557739,69.725952 
	C195.491653,71.531174 189.744934,72.806839 183.998199,74.082504 
	C187.200165,66.997719 187.553345,59.401192 187.996033,51.370354 
	C191.744034,49.997063 195.493195,49.074368 199.630051,48.203285 
z"/>
<path fill="#717D85" opacity="1.000000" stroke="none" 
	d="
M131.668701,80.074036 
	C131.143570,81.739861 129.960846,83.476875 129.576462,85.375519 
	C129.113312,87.663284 128.389938,90.689697 129.441772,92.330742 
	C131.744537,95.923477 135.096664,98.843620 138.022247,102.651077 
	C135.285202,106.466194 132.546097,109.668686 129.806992,112.871185 
	C126.957390,108.003235 124.089096,103.146080 121.270943,98.260002 
	C120.539162,96.991249 119.964127,95.632103 118.993881,94.125259 
	C122.902039,89.362976 127.133415,84.789902 131.668701,80.074036 
z"/>
<path fill="#374954" opacity="1.000000" stroke="none" 
	d="
M110.946564,146.990204 
	C109.024803,146.253448 106.918854,145.806061 105.217506,144.723053 
	C100.941765,142.001312 96.848824,138.992401 92.333397,136.050537 
	C93.086693,133.478333 94.189178,130.954254 95.515877,128.192917 
	C100.087624,131.065811 104.416595,134.202438 108.793343,137.270905 
	C110.212372,138.265747 111.756577,139.082047 113.493195,140.310150 
	C112.810760,142.756943 111.878662,144.873566 110.946564,146.990204 
z"/>
<path fill="#0E1E2F" opacity="1.000000" stroke="none" 
	d="
M110.907990,147.365021 
	C111.878662,144.873566 112.810760,142.756943 113.855621,140.313507 
	C119.185081,131.163193 124.401794,122.339661 129.712738,113.193657 
	C132.546097,109.668686 135.285202,106.466194 138.187958,103.008850 
	C142.180328,99.388733 146.009048,96.023460 150.018295,92.368637 
	C155.116638,88.970634 160.034470,85.862190 165.185226,82.491516 
	C171.423416,79.654678 177.428680,77.080070 183.716064,74.293983 
	C189.744934,72.806839 195.491653,71.531174 201.619522,70.122742 
	C208.366577,69.593727 214.732498,69.197479 221.557236,68.710228 
	C229.387527,69.098137 236.758987,69.577049 244.566101,70.013184 
	C252.772751,72.181755 260.543762,74.393112 268.664856,76.665756 
	C302.686707,90.453011 325.553070,114.663681 338.797974,148.709930 
	C340.611389,155.741974 342.207703,162.484985 343.947998,169.610565 
	C344.391083,179.016052 344.690247,188.038971 345.036407,197.528137 
	C344.225769,203.327438 343.368134,208.660477 342.436218,214.422623 
	C340.185699,221.296722 338.009521,227.741714 335.768646,234.560822 
	C333.135956,239.714783 330.567932,244.494629 327.913208,249.620056 
	C325.894287,252.740250 323.962067,255.514877 321.916321,258.617157 
	C318.260223,262.991974 314.717682,267.039093 311.012878,271.359039 
	C307.158905,274.815796 303.467163,277.999695 299.543335,281.452240 
	C290.302094,286.938232 281.292938,292.155579 272.002991,297.587891 
	C259.422852,300.513672 247.123520,303.224457 234.410187,305.960541 
	C221.942596,304.996490 209.889008,304.007172 197.417847,303.010712 
	C188.340240,299.679047 179.426010,296.889526 171.072235,292.920441 
	C152.773209,284.226105 137.707275,271.489746 125.919518,254.895386 
	C116.762138,242.003967 109.770271,228.029312 106.921745,212.523117 
	C104.960556,201.847229 104.941055,190.814621 104.045471,179.475113 
	C104.844597,168.264603 107.088921,157.834396 110.907990,147.365021 
M246.874176,118.800331 
	C253.589874,112.335098 260.383209,105.947433 266.971100,99.354500 
	C268.804871,97.519318 270.030640,95.076561 272.199829,91.956841 
	C262.146027,91.956841 253.661713,91.858406 245.184204,92.054123 
	C243.777405,92.086594 242.400238,93.402786 240.395660,94.356552 
	C236.896057,97.807076 233.396469,101.257599 229.259308,104.961632 
	C223.157318,110.938965 217.055328,116.916306 210.348740,123.189247 
	C202.806366,128.239685 199.418869,135.073532 200.935287,144.248779 
	C201.362213,146.831909 201.003067,149.545059 201.003525,152.198563 
	C201.004074,155.511795 201.003632,158.825027 201.003632,163.457947 
	C205.039185,159.175980 207.976303,156.059525 211.500916,152.628403 
	C217.718475,146.637115 223.936035,140.645813 230.799271,134.340042 
	C235.972992,129.273224 241.146713,124.206398 246.874176,118.800331 
M267.340881,255.042084 
	C266.775513,255.318970 266.210175,255.595856 264.750824,255.823166 
	C245.308502,255.823166 225.866180,255.823166 206.053268,255.823166 
	C206.053268,263.807861 206.053268,270.905945 206.042160,278.543640 
	C206.355118,278.639771 206.668076,278.735931 207.906067,279.008545 
	C218.269913,279.007751 228.633774,279.006958 239.741714,279.324219 
	C245.158279,279.208374 250.574860,279.092499 256.870758,279.029968 
	C269.143585,278.594971 280.245636,275.246246 289.668945,265.895386 
	C291.407410,264.110260 293.250336,262.414673 294.868408,260.526367 
	C313.503937,238.778854 304.624084,200.762405 275.343994,193.594910 
	C267.296753,191.625015 259.365417,189.162384 251.428391,186.768295 
	C245.658920,185.028015 239.967651,183.028503 233.609955,180.936768 
	C243.429749,171.580215 252.525223,162.817474 261.782715,154.229340 
	C262.803986,153.281937 264.749084,152.992508 266.271423,152.977539 
	C276.759521,152.874390 287.249115,152.925598 297.738251,152.926712 
	C302.661774,152.927231 307.585327,152.926804 312.435944,152.926804 
	C312.435944,145.037125 312.435944,137.802246 312.435944,130.175217 
	C299.614502,130.175217 287.099518,130.919373 274.715027,129.966751 
	C262.229156,129.006378 251.869858,131.312027 244.333908,142.048874 
	C243.036835,143.896896 240.835007,145.092636 239.128433,146.673187 
	C225.833191,158.986664 212.556900,171.320602 198.862289,183.000198 
	C194.737289,181.477371 196.463577,184.753052 195.855301,186.922394 
	C193.868454,188.603531 191.881622,190.284683 189.353668,191.975006 
	C188.992920,191.980133 188.632187,191.985260 188.041550,191.079529 
	C187.880966,178.091095 187.720383,165.102661 187.770248,151.183960 
	C187.770248,131.634949 187.770248,112.085930 187.770248,92.487534 
	C172.952576,93.674431 164.727432,100.305885 164.243896,113.265984 
	C163.550720,131.845276 164.198669,150.474609 164.120117,169.998123 
	C164.100983,198.625534 163.975006,227.253448 164.110092,255.880127 
	C164.172836,269.177917 173.889694,278.332336 187.832855,278.358795 
	C187.832855,276.562622 187.831482,274.763977 187.833084,272.965302 
	C187.846024,258.318481 187.789307,243.670868 187.957443,229.025833 
	C187.979660,227.089874 188.581467,224.570801 189.879547,223.335556 
	C197.949982,215.655884 206.262955,208.228638 214.595825,200.830719 
	C215.520233,200.010040 217.263443,199.260040 218.315414,199.562073 
	C234.886017,204.319717 251.431839,209.168777 267.926422,214.184052 
	C277.121613,216.979904 284.067383,226.095825 282.687286,234.809326 
	C281.918823,239.661377 278.862122,244.151001 276.204254,249.046097 
	C273.466125,251.052383 270.727997,253.058670 267.340881,255.042084 
z"/>
<path fill="#FBFCFC" opacity="1.000000" stroke="none" 
	d="
M276.836639,248.803955 
	C278.862122,244.151001 281.918823,239.661377 282.687286,234.809326 
	C284.067383,226.095825 277.121613,216.979904 267.926422,214.184052 
	C251.431839,209.168777 234.886017,204.319717 218.315414,199.562073 
	C217.263443,199.260040 215.520233,200.010040 214.595825,200.830719 
	C206.262955,208.228638 197.949982,215.655884 189.879547,223.335556 
	C188.581467,224.570801 187.979660,227.089874 187.957443,229.025833 
	C187.789307,243.670868 187.846024,258.318481 187.833084,272.965302 
	C187.831482,274.763977 187.832855,276.562622 187.832855,278.358795 
	C173.889694,278.332336 164.172836,269.177917 164.110092,255.880127 
	C163.975006,227.253448 164.100983,198.625534 164.538208,169.522690 
	C168.600784,166.252625 172.220566,163.425018 175.896545,160.672440 
	C179.756241,157.782242 183.669800,154.963943 187.559814,152.114227 
	C187.720383,165.102661 187.880966,178.091095 188.106064,191.821014 
	C188.745316,192.363586 189.320038,192.164703 189.894775,191.965820 
	C191.881622,190.284683 193.868454,188.603531 196.285172,186.546570 
	C197.568283,185.329910 198.421509,184.489075 199.274750,183.648224 
	C212.556900,171.320602 225.833191,158.986664 239.128433,146.673187 
	C240.835007,145.092636 243.036835,143.896896 244.333908,142.048874 
	C251.869858,131.312027 262.229156,129.006378 274.715027,129.966751 
	C287.099518,130.919373 299.614502,130.175217 312.435944,130.175217 
	C312.435944,137.802246 312.435944,145.037125 312.435944,152.926804 
	C307.585327,152.926804 302.661774,152.927231 297.738251,152.926712 
	C287.249115,152.925598 276.759521,152.874390 266.271423,152.977539 
	C264.749084,152.992508 262.803986,153.281937 261.782715,154.229340 
	C252.525223,162.817474 243.429749,171.580215 233.609955,180.936768 
	C239.967651,183.028503 245.658920,185.028015 251.428391,186.768295 
	C259.365417,189.162384 267.296753,191.625015 275.343994,193.594910 
	C304.624084,200.762405 313.503937,238.778854 294.868408,260.526367 
	C293.250336,262.414673 291.407410,264.110260 289.210815,265.683044 
	C284.780670,259.915100 280.808655,254.359528 276.836639,248.803955 
z"/>
<path fill="#C4C8CA" opacity="1.000000" stroke="none" 
	d="
M187.665039,151.649094 
	C183.669800,154.963943 179.756241,157.782242 175.896545,160.672440 
	C172.220566,163.425018 168.600784,166.252625 164.615173,169.064911 
	C164.198669,150.474609 163.550720,131.845276 164.243896,113.265984 
	C164.727432,100.305885 172.952576,93.674431 187.770248,92.487534 
	C187.770248,112.085930 187.770248,131.634949 187.665039,151.649094 
z"/>
<path fill="#BCC0C2" opacity="1.000000" stroke="none" 
	d="
M276.520447,248.925018 
	C280.808655,254.359528 284.780670,259.915100 288.887573,265.790710 
	C280.245636,275.246246 269.143585,278.594971 256.207672,278.729370 
	C254.880997,275.898987 253.776230,273.392670 253.640320,270.834839 
	C253.295151,264.339752 251.784485,258.691376 244.616318,259.923645 
	C241.868378,260.396027 238.968124,259.920258 236.145294,260.050354 
	C235.045578,260.101044 233.263611,260.334869 232.989731,260.987640 
	C230.395020,267.171722 225.415222,264.542023 221.054337,264.599945 
	C219.259262,264.623718 216.742889,265.080719 215.889023,266.286011 
	C214.982269,267.565948 214.970367,270.415314 215.840195,271.750000 
	C216.677032,273.034088 219.108536,273.731354 220.896378,273.853699 
	C225.294098,274.154694 229.730118,274.119293 234.140213,273.947998 
	C237.861801,273.803436 239.369583,275.407166 238.997620,279.006165 
	C228.633774,279.006958 218.269913,279.007751 207.325378,278.744781 
	C206.553375,278.265259 206.322906,278.106262 206.053268,278.004059 
	C206.053268,270.905945 206.053268,263.807861 206.053268,255.823166 
	C225.866180,255.823166 245.308502,255.823166 265.525360,255.863220 
	C266.863220,255.623810 267.426544,255.344360 267.989868,255.064941 
	C270.727997,253.058670 273.466125,251.052383 276.520447,248.925018 
z"/>
<path fill="#869095" opacity="1.000000" stroke="none" 
	d="
M230.153595,134.654541 
	C223.936035,140.645813 217.718475,146.637115 210.965775,152.504913 
	C210.504349,150.788467 210.621918,149.196136 210.644424,147.602448 
	C210.760803,139.366379 210.852829,131.129959 210.953339,122.893646 
	C217.055328,116.916306 223.157318,110.938965 229.555588,105.270004 
	C229.568161,108.004471 228.981995,110.440018 229.057434,112.854881 
	C229.284576,120.125748 229.769318,127.388580 230.153595,134.654541 
z"/>
<path fill="#B7BBBF" opacity="1.000000" stroke="none" 
	d="
M239.369659,279.165192 
	C239.369583,275.407166 237.861801,273.803436 234.140213,273.947998 
	C229.730118,274.119293 225.294098,274.154694 220.896378,273.853699 
	C219.108536,273.731354 216.677032,273.034088 215.840195,271.750000 
	C214.970367,270.415314 214.982269,267.565948 215.889023,266.286011 
	C216.742889,265.080719 219.259262,264.623718 221.054337,264.599945 
	C225.415222,264.542023 230.395020,267.171722 232.989731,260.987640 
	C233.263611,260.334869 235.045578,260.101044 236.145294,260.050354 
	C238.968124,259.920258 241.868378,260.396027 244.616318,259.923645 
	C251.784485,258.691376 253.295151,264.339752 253.640320,270.834839 
	C253.776230,273.392670 254.880997,275.898987 255.768005,278.702698 
	C250.574860,279.092499 245.158279,279.208374 239.369659,279.165192 
z"/>
<path fill="#949DA1" opacity="1.000000" stroke="none" 
	d="
M241.009384,94.125763 
	C242.400238,93.402786 243.777405,92.086594 245.184204,92.054123 
	C253.661713,91.858406 262.146027,91.956841 272.199829,91.956841 
	C270.030640,95.076561 268.804871,97.519318 266.971100,99.354500 
	C260.383209,105.947433 253.589874,112.335098 246.218323,118.872864 
	C244.740936,117.141769 242.892029,115.050629 243.300446,113.591217 
	C244.316498,109.960556 242.636383,107.800354 240.934082,105.061882 
	C239.856400,103.328239 240.150970,100.641960 240.139664,98.381386 
	C240.132568,96.964333 240.699829,95.544403 241.009384,94.125763 
z"/>
<path fill="#8D969B" opacity="1.000000" stroke="none" 
	d="
M240.702515,94.241158 
	C240.699829,95.544403 240.132568,96.964333 240.139664,98.381386 
	C240.150970,100.641960 239.856400,103.328239 240.934082,105.061882 
	C242.636383,107.800354 244.316498,109.960556 243.300446,113.591217 
	C242.892029,115.050629 244.740936,117.141769 245.941437,119.042480 
	C241.146713,124.206398 235.972992,129.273224 230.476440,134.497284 
	C229.769318,127.388580 229.284576,120.125748 229.057434,112.854881 
	C228.981995,110.440018 229.568161,108.004471 229.874359,105.143250 
	C233.396469,101.257599 236.896057,97.807076 240.702515,94.241158 
z"/>
<path fill="#7E898F" opacity="1.000000" stroke="none" 
	d="
M210.651047,123.041451 
	C210.852829,131.129959 210.760803,139.366379 210.644424,147.602448 
	C210.621918,149.196136 210.504349,150.788467 210.672028,152.662262 
	C207.976303,156.059525 205.039185,159.175980 201.003632,163.457947 
	C201.003632,158.825027 201.004074,155.511795 201.003525,152.198563 
	C201.003067,149.545059 201.362213,146.831909 200.935287,144.248779 
	C199.418869,135.073532 202.806366,128.239685 210.651047,123.041451 
z"/>
<path fill="#122334" opacity="1.000000" stroke="none" 
	d="
M199.068512,183.324219 
	C198.421509,184.489075 197.568283,185.329910 196.420685,186.253601 
	C196.463577,184.753052 194.737289,181.477371 199.068512,183.324219 
z"/>
<path fill="#B7BBBF" opacity="1.000000" stroke="none" 
	d="
M267.665375,255.053497 
	C267.426544,255.344360 266.863220,255.623810 265.972351,255.888000 
	C266.210175,255.595856 266.775513,255.318970 267.665375,255.053497 
z"/>
<path fill="#122334" opacity="1.000000" stroke="none" 
	d="
M189.624222,191.970413 
	C189.320038,192.164703 188.745316,192.363586 188.221008,192.276428 
	C188.632187,191.985260 188.992920,191.980133 189.624222,191.970413 
z"/>
<path fill="#B7BBBF" opacity="1.000000" stroke="none" 
	d="
M206.047714,278.273865 
	C206.322906,278.106262 206.553375,278.265259 206.862854,278.656555 
	C206.668076,278.735931 206.355118,278.639771 206.047714,278.273865 
z"/>
</svg>